<svg xmlns="http://www.w3.org/2000/svg" width="24" height="31" fill="#f9bf6f"><path d="M.671 12.114c2.73-7.606 3.8-8.396 3.8-8.396s.473-.584 1.63.791c0 0 .545.093-3.672 8.468-.363.561-.814.685-1.356.372s-.678-.725-.402-1.234zM22.452 29.11c-10.489.483-11.9-.126-11.9-.126s-.913-.184.305-1.656c0 0-.109-.491 11.937-.008.84.1 1.177.433 1.014 1.002s-.614.833-1.355.787zm-1.019-17.637c-10.126 7.401-12.282 8.235-12.282 8.235s-1.647-.53-.848-1.667c0 0-.611-.483 12.492-8.338.897-.484 1.418-.426 1.566.175s-.159 1.133-.928 1.596z"/></svg>