<svg xmlns="http://www.w3.org/2000/svg" width="144" height="40" fill="none"><path d="M0 .5h16.889v3.13H2.942v32.427h13.947v3.13H0V.5zm19.302 0h16.889v38.687H19.302v-3.13h13.947V3.63H19.302V.5zM6.355 8.887h10.534v4.194h-6.12v2.567h10.769c1 0 1.824.876 1.824 1.941s-.824 1.941-1.824 1.941H10.769v1.502 1.064 3.443 5.384H6.355v-5.384-16.59-.063zm12.947 0h2.472c4.296 0 7.827 3.756 7.827 8.326 0 3.193-1.589 6.573-4.119 7.95l2.766 5.697h-4.943l-1.942-4.382h-4.414v4.382h-4.002v-5.384-3.443h8.18c2.295 0 4.237-2.003 4.237-4.507 0-2.441-1.883-4.507-4.237-4.507h-1.765V8.824l-.059.063z" fillRule="evenodd" fill="#585652"/><path d="M51.61 2.192h-7.474c-.176 0-.294.125-.294.313v12.457c0 .188.118.313.294.313h1.236c.177 0 .294-.125.294-.313v-4.507h5.238c.176 0 .294-.125.294-.313V9.015c0-.188-.118-.313-.294-.313h-5.238v-4.82h5.944c.177 0 .294-.125.294-.313V2.505c0-.188-.118-.313-.294-.313zm7.533 13.271c3.119 0 5.237-2.003 5.237-5.634V2.505c0-.188-.118-.313-.294-.313H62.85c-.177 0-.294.125-.294.313v7.449c0 2.128-1.177 3.693-3.413 3.693s-3.472-1.565-3.472-3.693V2.505c0-.188-.118-.313-.294-.313H54.14c-.177 0-.294.125-.294.313v7.324c0 3.631 2.119 5.634 5.296 5.634zm17.419-.563l-2.707-4.132c1.589-.689 2.531-2.128 2.531-4.006 0-2.942-2.001-4.57-4.826-4.57h-3.884c-.177 0-.294.125-.294.313v12.457c0 .188.118.313.294.313h1.236c.177 0 .294-.125.294-.313v-3.693h2.177.589l2.472 3.881c.059.125.235.188.353.188h1.53c.235 0 .353-.125.177-.376l.059-.063zm-5.179-5.384h-2.177V3.882h2.236c1.765 0 3.06.939 3.06 2.88 0 1.69-1.236 2.817-3.178 2.817l.059-.063zm18.125-7.324h-1.236c-.177 0-.294.125-.294.313v9.39l-7.65-9.64c-.118-.125-.235-.188-.353-.188h-.588c-.177 0-.294.125-.294.313v12.583c0 .188.118.313.294.313h1.236c.177 0 .294-.125.294-.313V5.635l7.709 9.64c.118.125.235.188.353.188h.589c.177 0 .294-.125.294-.313V2.567c0-.188-.118-.313-.294-.313l-.059-.063zm3.825 13.083h1.236c.176 0 .294-.125.294-.313V2.505c0-.188-.118-.313-.294-.313h-1.236c-.177 0-.294.125-.294.313v12.457c0 .188.118.313.294.313zm13.241-13.083h-9.593c-.177 0-.294.125-.294.313v1.064c0 .188.118.313.294.313h3.884v11.08c0 .188.118.313.295.313h1.235c.177 0 .295-.125.295-.313V3.882h3.825c.176 0 .294-.125.294-.313V2.505c0-.188-.118-.313-.294-.313h.059zm7.238 13.271c3.119 0 5.237-2.003 5.237-5.634V2.505c0-.188-.117-.313-.294-.313h-1.236c-.176 0-.294.125-.294.313v7.449c0 2.128-1.177 3.693-3.413 3.693s-3.472-1.565-3.472-3.693V2.505c0-.188-.118-.313-.294-.313h-1.236c-.177 0-.294.125-.294.313v7.324c0 3.631 2.118 5.634 5.296 5.634zm17.419-.563l-2.707-4.132c1.589-.689 2.53-2.128 2.53-4.006 0-2.942-2.001-4.57-4.825-4.57h-3.884c-.177 0-.294.125-.294.313v12.457c0 .188.117.313.294.313h1.236c.176 0 .294-.125.294-.313v-3.693h2.177.589l2.471 3.881c.059.125.236.188.353.188h1.53c.236 0 .354-.125.177-.376l.059-.063zm-5.179-5.384h-2.177V3.882h2.236c1.765 0 3.06.939 3.06 2.88 0 1.69-1.236 2.817-3.178 2.817l.059-.063zm15.654 4.069h-6.12V9.516h5.296c.176 0 .294-.125.294-.313V8.139c0-.188-.118-.313-.294-.313h-5.296V3.944h6.061c.176 0 .294-.125.294-.313V2.567c0-.188-.118-.313-.294-.313h-7.591c-.177 0-.295.125-.295.313v12.457c0 .188.118.313.295.313h7.65c.176 0 .294-.125.294-.313V13.96c0-.188-.118-.313-.294-.313v-.063zM53.375 23.851l-.824-.438c-.177-.063-.294 0-.353.188-.235.626-.765 1.565-1.471 2.379l-2.883-3.005c1.824-.939 2.707-2.191 2.707-3.693 0-1.815-1.354-3.005-3.237-3.005-1.942 0-3.472 1.252-3.472 3.255 0 1.064.471 2.003 1.353 3.067-1.353.751-2.236 1.878-2.236 3.506 0 2.191 1.648 3.631 4.002 3.631 1.412 0 2.707-.501 3.649-1.44l1.412 1.44c.118.125.235.188.412 0l.706-.814c.177-.188.118-.313 0-.438l-1.353-1.377c.941-1.064 1.412-2.066 1.707-2.754.059-.188 0-.313-.177-.438l.059-.063zm-5.944-6.135c.942 0 1.648.626 1.648 1.628 0 .939-.765 1.815-2.236 2.504-.883-.939-1.236-1.565-1.236-2.316 0-1.064.765-1.815 1.824-1.815zm-.294 10.392c-1.353 0-2.354-.814-2.354-2.128 0-1.002.588-1.815 1.53-2.316l3.296 3.38c-.706.689-1.53 1.002-2.472 1.002v.063zm24.068 1.877l-2.648-4.132c1.589-.689 2.53-2.128 2.53-4.006 0-2.942-1.942-4.57-4.767-4.57h-3.825c-.176 0-.294.125-.294.313v12.457c0 .188.118.313.294.313h1.236c.177 0 .294-.125.294-.313v-3.693h2.177.589l2.413 3.881c.059.125.235.188.353.188h1.471c.235 0 .353-.125.176-.376v-.063zm-5.061-5.384h-2.119v-5.634h2.236c1.765 0 3.06.939 3.06 2.88 0 1.69-1.236 2.817-3.119 2.817l-.059-.063zm17.478 4.069h-6.061v-4.069h5.237c.177 0 .294-.125.294-.313v-1.064c0-.188-.118-.313-.294-.313h-5.237V19.03h6.002c.177 0 .294-.125.294-.313v-1.064c0-.188-.118-.313-.294-.313h-7.474c-.177 0-.294.125-.294.313V30.11c0 .188.118.313.294.313h7.532c.177 0 .294-.125.294-.313v-1.064c0-.188-.118-.313-.294-.313v-.063zm8.945-11.393h-3.825c-.177 0-.294.125-.294.313v12.457c0 .188.118.313.294.313h1.236c.176 0 .294-.125.294-.313v-3.693h2.295c2.825 0 4.884-1.628 4.884-4.507s-2.001-4.57-4.767-4.57h-.118zm-.059 7.324h-2.236v-5.634h2.236c1.824 0 3.06 1.127 3.06 2.817s-1.177 2.817-3.06 2.817zm18.302 5.446l-4.944-12.52a.32.32 0 0 0-.353-.25h-.824c-.176 0-.294.063-.353.25l-4.943 12.52c-.059.188 0 .376.235.376h1.295c.177 0 .294-.063.353-.25l.942-2.504h5.826l.941 2.504c.059.125.177.25.353.25h1.295c.235 0 .294-.125.235-.376h-.058zm-5.709-10.079l2.295 6.01h-4.59l2.295-6.01zm9.887 10.392h1.236c.176 0 .294-.125.294-.313V17.591c0-.188-.118-.313-.294-.313h-1.236c-.177 0-.295.125-.295.313v12.457c0 .188.118.313.295.313zm15.771-.376l-2.648-4.132c1.589-.689 2.53-2.128 2.53-4.006 0-2.942-1.942-4.57-4.766-4.57h-3.826c-.176 0-.294.125-.294.313v12.457c0 .188.118.313.294.313h1.236c.177 0 .295-.125.295-.313v-3.693h2.177.588l2.413 3.881c.059.125.236.188.353.188h1.471c.236 0 .354-.125.177-.376v-.063zm-5.061-5.384h-2.118v-5.634h2.236c1.765 0 3.06.939 3.06 2.88 0 1.69-1.236 2.817-3.119 2.817l-.059-.063zm13.123 5.884c2.354 0 4.178-1.44 4.178-3.881 0-2.316-1.412-3.318-3.766-3.944-1.707-.501-2.589-.939-2.589-2.066 0-1.189.941-1.815 2.295-1.815 1.177 0 2.001.25 2.766.814.176.125.294.063.412-.063l.529-.939c.059-.125.059-.313-.059-.438-.823-.626-2-1.064-3.648-1.064-2.413 0-4.12 1.502-4.12 3.631s1.413 3.067 3.649 3.693c1.942.501 2.707 1.127 2.707 2.379 0 1.315-1 2.003-2.354 2.003-1.236 0-2.354-.438-3.354-1.127-.177-.125-.294-.063-.412.063l-.589 1.002c-.117.188-.058.376.059.438 1.118.814 2.531 1.252 4.237 1.252l.059.063z" fill="#585652" stroke="#585652" stroke-width=".288"/><path fillRule="evenodd" d="M43.018 31.801h99.864v.876H43.018v-.876z" fill="#585652"/><path d="M43.43 39.25v-4.445h2.825v.501h-2.236v1.377h1.942v.501h-1.942v2.003h-.53l-.059.063zm6.65-4.445h.53v2.567c0 .438-.059.814-.118 1.064-.118.25-.235.501-.53.626-.235.188-.588.25-.942.25-.412 0-.706-.063-.942-.188s-.412-.376-.53-.626-.176-.626-.176-1.127v-2.567h.53v2.567c0 .376.059.689.118.876s.177.313.353.438.353.125.588.125c.412 0 .706-.125.883-.313s.235-.563.235-1.127v-2.567zm1.883 4.445v-4.445h1.824c.353 0 .647.063.824.125s.353.25.471.438.176.438.176.689c0 .313-.118.563-.294.814-.177.188-.471.376-.883.438.118.063.235.125.353.25.177.188.294.376.471.563l.706 1.189h-.706l-.53-.939c-.177-.25-.294-.501-.412-.626s-.177-.25-.294-.313c-.059-.063-.176-.125-.235-.125h-.294-.647v1.941h-.53zm.53-2.504h1.177c.235 0 .471 0 .589-.063s.235-.125.294-.25.118-.25.118-.376c0-.188-.059-.376-.235-.501-.118-.125-.353-.188-.647-.188h-1.295v1.44-.063zm4.002 2.504v-4.445h.589l2.177 3.506v-3.506h.53v4.445h-.589l-2.177-3.506v3.506h-.53zm4.708 0v-4.445h.53v4.445h-.53zm2.942 0v-3.944h-1.353v-.501h3.296v.501h-1.353v3.944h-.53-.059zm5.591-4.445h.53v2.567c0 .438-.059.814-.118 1.064-.118.25-.235.501-.53.626-.235.188-.589.25-.942.25-.412 0-.706-.063-.941-.188s-.412-.376-.53-.626-.177-.626-.177-1.127v-2.567h.53v2.567c0 .376.059.689.118.876s.177.313.353.438.353.125.589.125c.412 0 .706-.125.883-.313s.235-.563.235-1.127v-2.567zm1.883 4.445v-4.445h1.824c.353 0 .647.063.824.125s.353.25.471.438.177.438.177.689c0 .313-.118.563-.294.814-.177.188-.471.376-.883.438.118.063.235.125.353.25.177.188.294.376.471.563l.706 1.189h-.706l-.53-.939c-.177-.25-.294-.501-.412-.626s-.177-.25-.294-.313c-.059-.063-.176-.125-.235-.125h-.294-.647v1.941h-.53zm.53-2.504h1.177c.235 0 .471 0 .588-.063s.235-.125.294-.25.118-.25.118-.376c0-.188-.059-.376-.235-.501-.118-.125-.353-.188-.647-.188h-1.295v1.44-.063zm4.002 2.504v-4.445h3.001v.501h-2.472v1.377h2.295v.501h-2.295v1.502h2.53v.501H76.09l.059.063zm5.826 0v-4.445h3.001v.501h-2.472v1.377H84.8v.501h-2.295v1.502h2.53v.501h-3.119l.059.063zm3.825 0l1.589-2.316-1.412-2.128h.647l.765 1.127c.177.25.294.438.353.563.118-.125.177-.313.353-.501l.824-1.189h.588l-1.471 2.128 1.53 2.316h-.647l-1.059-1.565c-.059-.063-.118-.188-.177-.25-.118.125-.177.25-.177.313l-1.059 1.565H85.8v-.063zm4.708 0v-4.445h1.589c.294 0 .471 0 .647.063l.53.188c.118.125.235.25.353.438.059.188.118.376.118.626 0 .376-.118.689-.353.939s-.647.376-1.236.376h-1.059v1.815h-.53-.059zm.53-2.316h1.059c.353 0 .588-.063.765-.188s.235-.313.235-.626c0-.188-.059-.313-.118-.501-.059-.125-.177-.25-.353-.25-.118 0-.235-.063-.53-.063h-1.059v1.565.063zm3.707 2.316v-4.445h3.001v.501h-2.472v1.377h2.295v.501h-2.295v1.502h2.53v.501h-3.119l.059.063zm4.237 0v-4.445h1.824c.353 0 .648.063.824.125s.353.25.471.438.177.438.177.689c0 .313-.118.563-.295.814a1.51 1.51 0 0 1-.882.438c.117.063.235.125.353.25.176.188.294.376.47.563l.707 1.189h-.707l-.529-.939c-.177-.25-.294-.501-.412-.626s-.177-.25-.294-.313c-.059-.063-.177-.125-.236-.125h-.294-.647v1.941h-.53zm.53-2.504h1.177c.235 0 .47 0 .588-.063s.236-.125.294-.25.118-.25.118-.376c0-.188-.059-.376-.235-.501-.118-.125-.353-.188-.648-.188h-1.294v1.44-.063zm4.943 2.504v-3.944h-1.354v-.501h3.296v.501h-1.354v3.944h-.529-.059zm2.707-1.44l.53-.063c0 .25.058.376.176.563.118.125.236.25.412.376.177.063.412.125.647.125a1.12 1.12 0 0 0 .53-.125c.177-.063.294-.188.353-.25.059-.125.118-.25.118-.376s-.059-.25-.118-.376-.176-.188-.353-.25c-.118-.063-.353-.125-.765-.188l-.824-.25c-.176-.125-.353-.25-.471-.438s-.117-.376-.117-.563c0-.25.058-.438.176-.626s.294-.313.53-.438.471-.125.765-.125.588.063.824.188.412.25.529.438.177.438.177.689l-.53.063c0-.25-.117-.501-.294-.626s-.412-.188-.706-.188c-.353 0-.589.063-.706.188-.177.125-.236.313-.236.501s.059.313.177.376c.118.125.353.188.824.313s.765.188.941.313c.236.125.412.25.53.438s.176.376.176.626-.058.438-.176.689a1.42 1.42 0 0 1-.53.501c-.235.125-.529.188-.824.188-.353 0-.706-.063-.941-.188s-.471-.313-.589-.501c-.117-.25-.235-.501-.235-.814v-.188zm8.297.876c-.176.188-.353.376-.529.438-.177.125-.412.125-.647.125-.412 0-.765-.125-1.001-.438-.176-.25-.294-.501-.294-.814 0-.25.059-.501.235-.751a1.5 1.5 0 0 1 .765-.563c-.176-.25-.294-.438-.353-.563s-.117-.25-.117-.438c0-.25.117-.501.294-.689s.471-.313.765-.313.529.063.706.25.294.438.294.689c0 .438-.235.814-.765 1.064l.765 1.002c.059-.188.177-.376.177-.626l.529.125c-.117.376-.235.689-.353.939.177.25.412.501.648.689l-.353.438c-.177-.125-.412-.376-.648-.626l-.118.063zM114.4 36.37c.236-.125.353-.25.412-.376s.118-.25.118-.376-.059-.25-.118-.376c-.118-.125-.176-.125-.353-.125-.118 0-.235.063-.353.125-.118.125-.118.188-.118.376 0 .063 0 .125.059.188s.059.188.177.25l.235.313h-.059zm.706 1.878l-.941-1.252c-.294.188-.471.313-.53.501-.117.125-.117.313-.117.438a1.05 1.05 0 0 0 .176.563c.118.188.294.313.589.313.176 0 .294-.063.47-.125.177-.125.295-.25.412-.376l-.059-.063zm3.826.939v-4.445h.823l1.001 3.13c.118.313.176.501.176.626l.236-.689 1-3.067h.706v4.445h-.529v-3.693l-1.236 3.693h-.471l-1.177-3.756v3.756h-.529zm5.237 0v-4.445h3.001v.501h-2.471v1.377h2.295v.501h-2.295v1.502h2.53v.501h-3.119l.059.063zm4.237 0v-4.445h1.412c.295 0 .589 0 .765.063.236.063.412.188.589.313.235.188.412.438.471.751.117.313.176.689.176 1.064 0 .313-.059.626-.117.876s-.177.501-.295.626c-.117.188-.235.313-.353.376-.118.125-.294.188-.471.25s-.412.063-.647.063h-1.471l-.059.063zm.53-.501h.882c.295 0 .471 0 .648-.063s.294-.125.353-.25a1.24 1.24 0 0 0 .294-.563c.059-.25.118-.501.118-.876 0-.438-.059-.814-.236-1.064-.117-.25-.294-.438-.529-.501-.118-.063-.412-.063-.706-.063h-.883v3.38h.059zm4.119.501v-4.445h.53v4.445h-.53zm4.884-1.565l.53.125c-.118.501-.294.876-.647 1.127-.295.25-.648.376-1.118.376s-.824-.125-1.119-.313-.47-.501-.647-.814c-.118-.376-.235-.751-.235-1.189s.059-.876.235-1.189.412-.626.706-.814.648-.25 1.001-.25a1.94 1.94 0 0 1 1.059.313c.294.25.471.563.588.939l-.529.125c-.118-.313-.236-.563-.412-.689s-.412-.25-.706-.25-.589.063-.824.25-.353.376-.471.689c-.059.25-.118.563-.118.876 0 .376.059.689.177 1.002s.235.501.471.626.47.188.706.188c.294 0 .588-.125.765-.313.235-.188.353-.501.412-.814h.176zm1.472.125l.529-.063c0 .25.059.376.177.563.117.125.235.25.412.376a2 2 0 0 0 .647.125 1.12 1.12 0 0 0 .53-.125c.176-.063.294-.188.353-.25.059-.125.117-.25.117-.376s-.058-.25-.117-.376-.177-.188-.353-.25c-.118-.063-.353-.125-.765-.188l-.824-.25c-.177-.125-.353-.25-.471-.438s-.118-.376-.118-.563c0-.25.059-.438.177-.626s.294-.313.529-.438.471-.125.765-.125.589.063.824.188.412.25.53.438.177.438.177.689l-.53.063c0-.25-.118-.501-.294-.626s-.412-.188-.707-.188c-.353 0-.588.063-.706.188-.176.125-.235.313-.235.501s.059.313.176.376c.118.125.354.188.824.313s.765.188.942.313c.235.125.412.25.53.438a1.11 1.11 0 0 1 .176.626c0 .25-.059.438-.176.689a1.43 1.43 0 0 1-.53.501c-.236.125-.53.188-.824.188-.353 0-.706-.063-.942-.188s-.47-.313-.588-.501c-.118-.25-.235-.501-.235-.814v-.188z" fill="#585652"/></svg>