<svg xmlns="http://www.w3.org/2000/svg" width="316" height="49" fill="#585652"><path d="M38.146 12.969h1.746l4.976-4.988.245-2.117c-2.85-2.522-6.295-4.274-10.009-5.09s-7.573-.67-11.215.424-6.945 3.102-9.597 5.832a22.43 22.43 0 0 0-5.562 9.771 2.7 2.7 0 0 1 1.746-.105l9.951-1.645s.506-.84.768-.787a12.4 12.4 0 0 1 8.237-4.03c3.158-.241 6.288.738 8.75 2.735h-.035z"/><path d="M51.957 16.799A22.48 22.48 0 0 0 45.2 5.879l-6.983 7a12.44 12.44 0 0 1 3.411 4.409c.789 1.71 1.181 3.577 1.146 5.461v1.242a6.2 6.2 0 0 1 2.378.474c.754.313 1.439.772 2.016 1.351a6.23 6.23 0 0 1 1.347 2.021 6.24 6.24 0 0 1 0 4.768 6.23 6.23 0 0 1-1.347 2.021c-.577.578-1.262 1.037-2.016 1.351a6.2 6.2 0 0 1-2.378.474H30.343l-1.24 1.26v7.473l1.24 1.242h12.431a16.14 16.14 0 0 0 9.662-3.119c2.803-2.052 4.873-4.955 5.903-8.278a16.24 16.24 0 0 0-.184-10.173 16.2 16.2 0 0 0-6.198-8.058z"/><path d="M17.894 46.359h12.43v-9.975h-12.43a6.17 6.17 0 0 1-2.566-.56l-1.746.543-5.011 4.987-.436 1.75c2.81 2.127 6.238 3.27 9.759 3.255z"/><path d="M17.894 14a16.14 16.14 0 0 0-9.375 3.072 16.2 16.2 0 0 0-5.849 7.961 16.24 16.24 0 0 0-.146 9.886c.98 3.23 2.942 6.073 5.612 8.131l7.21-7.227a6.22 6.22 0 0 1-2.338-1.841c-.619-.794-1.037-1.727-1.217-2.718s-.118-2.012.181-2.974a6.23 6.23 0 0 1 1.538-2.55 6.21 6.21 0 0 1 2.544-1.542 6.2 6.2 0 0 1 2.967-.181 6.21 6.21 0 0 1 2.712 1.22 6.23 6.23 0 0 1 1.836 2.343l7.21-7.228a16.16 16.16 0 0 0-5.699-4.691A16.12 16.12 0 0 0 17.894 14zm74.271 25.394a15.87 15.87 0 0 1-6.244-1.194 15.91 15.91 0 0 1-5.279-3.549 15.4 15.4 0 0 1-3.614-5.196 15.43 15.43 0 0 1-1.222-6.214c-.026-2.134.391-4.25 1.224-6.214s2.063-3.733 3.613-5.196a15.89 15.89 0 0 1 5.269-3.596 15.87 15.87 0 0 1 6.254-1.234 15.4 15.4 0 0 1 5.973 1.119 15.43 15.43 0 0 1 5.079 3.343l-3.108 3.167c-2.128-2.062-4.984-3.194-7.943-3.15a11.04 11.04 0 0 0-4.47.885 11.07 11.07 0 0 0-3.736 2.615 11.43 11.43 0 0 0-2.533 3.811 11.45 11.45 0 0 0-.837 4.502 11.45 11.45 0 0 0 .857 4.445A11.43 11.43 0 0 0 83.96 31.5a11.7 11.7 0 0 0 16.341.192c1.37-1.503 2.21-3.415 2.392-5.442H92.217v-4.48h14.822a14.26 14.26 0 0 1 .175 2.73c.092 1.891-.199 3.781-.856 5.555a14.01 14.01 0 0 1-2.968 4.77 14.86 14.86 0 0 1-5.127 3.483c-1.934.787-4.012 1.157-6.099 1.085zm34.463-2.975a10.67 10.67 0 0 1-7.394 2.978c-2.755 0-5.404-1.067-7.394-2.978a9.97 9.97 0 0 1-2.289-3.401 10 10 0 0 1-.731-4.037 10.01 10.01 0 0 1 .732-4.036 10 10 0 0 1 2.288-3.401 10.69 10.69 0 0 1 14.788 0 10 10 0 0 1 2.288 3.401c.52 1.28.769 2.655.732 4.036a10.01 10.01 0 0 1-.738 4.039 9.97 9.97 0 0 1-2.3 3.398h.018zm-11.523-2.922c.529.566 1.169 1.018 1.879 1.326s1.476.468 2.25.468a5.64 5.64 0 0 0 2.25-.468c.71-.309 1.35-.76 1.879-1.326.577-.598 1.029-1.305 1.328-2.081a6.25 6.25 0 0 0 .418-2.434 6.27 6.27 0 0 0-.415-2.443c-.3-.778-.753-1.489-1.331-2.089a5.73 5.73 0 0 0-1.892-1.311c-.712-.304-1.48-.462-2.254-.462a5.73 5.73 0 0 0-2.254.462 5.74 5.74 0 0 0-1.893 1.311c-.578.6-1.03 1.311-1.33 2.089a6.27 6.27 0 0 0-.416 2.443 6.24 6.24 0 0 0 .426 2.436 6.25 6.25 0 0 0 1.338 2.079h.017zm34.254 2.922a10.67 10.67 0 0 1-7.394 2.978c-2.755 0-5.404-1.067-7.394-2.978a9.97 9.97 0 0 1-2.289-3.401 10 10 0 0 1-.731-4.037 10.01 10.01 0 0 1 .732-4.036 10 10 0 0 1 2.288-3.401c1.99-1.911 4.639-2.978 7.394-2.978a10.67 10.67 0 0 1 7.394 2.978 10 10 0 0 1 2.288 3.401c.52 1.28.769 2.655.732 4.036a10 10 0 0 1-.73 4.037 9.98 9.98 0 0 1-2.29 3.401zm-11.523-2.922c.529.566 1.169 1.018 1.879 1.326s1.476.468 2.25.468a5.64 5.64 0 0 0 2.25-.468c.71-.309 1.35-.76 1.879-1.326.577-.598 1.029-1.305 1.329-2.081s.441-1.603.417-2.434a6.27 6.27 0 0 0-.415-2.443c-.3-.778-.753-1.489-1.331-2.089a5.73 5.73 0 0 0-1.892-1.311c-.712-.304-1.48-.462-2.254-.462a5.73 5.73 0 0 0-2.254.462 5.74 5.74 0 0 0-1.893 1.311c-.578.6-1.03 1.311-1.33 2.089a6.27 6.27 0 0 0-.416 2.443 6.24 6.24 0 0 0 .426 2.436 6.25 6.25 0 0 0 1.338 2.079h.017zm26.467 15.243a9.13 9.13 0 0 1-5.813-1.855c-1.482-1.117-2.649-2.6-3.387-4.305l3.98-1.662c.433 1.019 1.111 1.914 1.973 2.607a4.97 4.97 0 0 0 3.265 1.102 5.22 5.22 0 0 0 2.205-.343c.702-.272 1.337-.692 1.863-1.232a6.4 6.4 0 0 0 1.449-4.55v-1.505h-.157c-.666.792-1.506 1.418-2.454 1.828a6.65 6.65 0 0 1-3.011.535 9.46 9.46 0 0 1-3.81-.789 9.47 9.47 0 0 1-3.173-2.256c-.967-.956-1.73-2.099-2.243-3.359s-.766-2.612-.743-3.973a10.19 10.19 0 0 1 .741-3.998 10.17 10.17 0 0 1 2.245-3.387c.888-.968 1.968-1.74 3.17-2.267s2.501-.798 3.813-.795a7.48 7.48 0 0 1 3.212.718c.87.38 1.644.948 2.27 1.663h.157v-1.663h4.33v18.638a10.9 10.9 0 0 1-.551 4.356 10.86 10.86 0 0 1-2.225 3.782 9.78 9.78 0 0 1-3.279 2.077c-1.22.466-2.522.682-3.827.636zm.315-13.44a5.07 5.07 0 0 0 2.167-.434 5.08 5.08 0 0 0 1.778-1.316c1.077-1.237 1.645-2.839 1.589-4.48a6.62 6.62 0 0 0-1.589-4.567 5.06 5.06 0 0 0-1.777-1.317c-.682-.303-1.423-.45-2.168-.433a5.38 5.38 0 0 0-2.231.434 5.39 5.39 0 0 0-1.855 1.316c-1.155 1.221-1.782 2.85-1.746 4.532-.017.825.128 1.646.427 2.415a6.25 6.25 0 0 0 1.319 2.065 5.42 5.42 0 0 0 1.851 1.334c.705.308 1.466.462 2.235.452zm17.266-27.125v30.59h-4.557V8.174h4.557zm12.5 31.22c-1.364.035-2.721-.213-3.986-.727a9.92 9.92 0 0 1-3.364-2.265 10.14 10.14 0 0 1-2.235-3.406 10.15 10.15 0 0 1-.715-4.014 10.27 10.27 0 0 1 .663-4.035 10.24 10.24 0 0 1 2.183-3.455 9.35 9.35 0 0 1 3.183-2.2 9.34 9.34 0 0 1 3.8-.722 8.8 8.8 0 0 1 3.492.683 8.22 8.22 0 0 1 2.671 1.75 12.27 12.27 0 0 1 1.746 2.117 12.53 12.53 0 0 1 1.03 2.047l.471 1.19-13.967 5.758a5.25 5.25 0 0 0 2.027 2.357c.897.562 1.944.839 3.001.793 1.029.003 2.041-.262 2.938-.768a5.95 5.95 0 0 0 2.178-2.12l3.492 2.363a11.53 11.53 0 0 1-3.353 3.185 9.48 9.48 0 0 1-5.255 1.47zm-5.831-10.728l9.288-3.867a3.22 3.22 0 0 0-1.449-1.593 4.72 4.72 0 0 0-2.392-.612 5.39 5.39 0 0 0-3.753 1.662 5.55 5.55 0 0 0-1.339 2.015c-.293.762-.414 1.58-.355 2.395zm38.636 10.727a14.36 14.36 0 0 1-5.659-1.056c-1.795-.731-3.426-1.818-4.792-3.195s-2.441-3.018-3.159-4.823-1.065-3.736-1.02-5.678a14.45 14.45 0 0 1 1.02-5.678c.718-1.804 1.793-3.445 3.159-4.823a14.39 14.39 0 0 1 4.792-3.195 14.36 14.36 0 0 1 5.659-1.056 13 13 0 0 1 5.704 1.122c1.793.8 3.382 1.996 4.649 3.498l-2.514 2.45c-.93-1.173-2.124-2.109-3.483-2.732a9.48 9.48 0 0 0-4.339-.855c-1.437-.033-2.867.227-4.202.762a10.67 10.67 0 0 0-3.567 2.353c-1.059 1.068-1.886 2.343-2.43 3.746a10.95 10.95 0 0 0-.73 4.409 10.95 10.95 0 0 0 .73 4.409c.544 1.403 1.371 2.679 2.43 3.746a10.67 10.67 0 0 0 3.567 2.353c1.335.535 2.765.795 4.202.762a11.08 11.08 0 0 0 4.831-1.049 11.11 11.11 0 0 0 3.899-3.046l2.514 2.52c-1.317 1.578-2.969 2.84-4.836 3.693a14.78 14.78 0 0 1-6.425 1.365zm18.017-.631h-3.614V10.5h3.614v28.263zm5.901-17.011c1.893-1.885 4.454-2.943 7.123-2.943s5.229 1.058 7.123 2.943a10.25 10.25 0 0 1 2.129 3.395 10.26 10.26 0 0 1 .664 3.955c.041 1.349-.185 2.693-.664 3.955a10.25 10.25 0 0 1-2.129 3.395c-1.894 1.885-4.454 2.943-7.123 2.943s-5.23-1.058-7.123-2.943c-.926-.98-1.65-2.134-2.129-3.395a10.26 10.26 0 0 1-.665-3.955 10.25 10.25 0 0 1 .665-3.955c.48-1.262 1.203-2.415 2.129-3.395zm2.688 12.425a6.1 6.1 0 0 0 2.017 1.412 6.09 6.09 0 0 0 2.409.498 6.07 6.07 0 0 0 2.409-.498 6.1 6.1 0 0 0 2.017-1.412 7.02 7.02 0 0 0 1.443-2.349 7.03 7.03 0 0 0 .425-2.726 7.03 7.03 0 0 0-.425-2.726 7.02 7.02 0 0 0-1.443-2.349 6.1 6.1 0 0 0-2.017-1.412 6.09 6.09 0 0 0-2.409-.498 6.07 6.07 0 0 0-2.409.498 6.1 6.1 0 0 0-2.017 1.412 7.02 7.02 0 0 0-1.443 2.349 7.03 7.03 0 0 0-.425 2.726c-.035.926.113 1.85.437 2.718s.816 1.663 1.449 2.339l-.018.017zm34.375 4.584h-3.492v-2.678h-.104a6.73 6.73 0 0 1-2.549 2.415 7.11 7.11 0 0 1-3.579.962c-1.021.07-2.044-.092-2.993-.474a6.79 6.79 0 0 1-2.489-1.731 8.76 8.76 0 0 1-1.868-5.915v-11.9h3.614v11.235c0 3.605 1.588 5.407 4.766 5.407a4.42 4.42 0 0 0 2.044-.43c.638-.304 1.194-.757 1.622-1.32.937-1.19 1.436-2.667 1.414-4.183v-10.71h3.614v19.32zm12.275.632a8.46 8.46 0 0 1-3.553-.769c-1.115-.511-2.107-1.257-2.907-2.189-1.81-2.004-2.779-4.63-2.706-7.333-.073-2.702.896-5.329 2.706-7.332.8-.931 1.792-1.678 2.907-2.189a8.46 8.46 0 0 1 3.553-.769 8.17 8.17 0 0 1 3.946.945 6.68 6.68 0 0 1 2.618 2.363h.158l-.158-2.678V10.5h3.614v28.263h-3.491v-2.678h-.157a6.69 6.69 0 0 1-2.619 2.362 8.17 8.17 0 0 1-3.911.945zm.594-3.307a5.75 5.75 0 0 0 2.376-.476 5.77 5.77 0 0 0 1.971-1.414 7.1 7.1 0 0 0 1.746-5.093 7.1 7.1 0 0 0-1.746-5.092 5.9 5.9 0 0 0-1.979-1.429c-.751-.333-1.564-.505-2.386-.505a5.89 5.89 0 0 0-2.386.505 5.91 5.91 0 0 0-1.979 1.429 7.02 7.02 0 0 0-1.377 2.363c-.3.871-.425 1.792-.368 2.712a7 7 0 0 0 .368 2.712 7.02 7.02 0 0 0 1.377 2.363 5.77 5.77 0 0 0 1.983 1.44 5.75 5.75 0 0 0 2.4.485z"/></svg>