<svg xmlns="http://www.w3.org/2000/svg" width="12" height="22" fill="#f9bf6f"><path d="M11.168 11.087h0a1.25 1.25 0 0 0-1.25-1.25H4.516a1.25 1.25 0 0 0-1.25 1.25h0a1.25 1.25 0 0 0 1.25 1.25h5.401a1.25 1.25 0 0 0 1.25-1.25zM7.89 20.485h0a1.25 1.25 0 0 0-.323-1.738L3.113 15.69a1.25 1.25 0 0 0-1.738.323h0a1.25 1.25 0 0 0 .323 1.738l4.453 3.057a1.25 1.25 0 0 0 1.738-.323zM7.823 1.579h0a1.25 1.25 0 0 0-1.744-.29L1.685 4.43a1.25 1.25 0 0 0-.29 1.744h0a1.25 1.25 0 0 0 1.744.29l4.394-3.141a1.25 1.25 0 0 0 .29-1.744z"/></svg>