<svg xmlns="http://www.w3.org/2000/svg" width="269" height="61" fill="none"><g clip-path="url(#B)"><mask id="A" maskUnits="userSpaceOnUse" x="0" y="0" width="269" height="61"><path d="M269 0H0V61H269V0Z" fill="#fff"/></mask><g mask="url(#A)"><path d="M77.372 44.001v-5.364H67.148V18.585h-5.724v25.416h15.948zm20.529-9.072c0-5.832-3.708-9.432-9.072-9.432-5.508 0-9.576 3.78-9.576 9.432 0 5.544 3.816 9.468 10.044 9.468 3.528 0 6.84-1.188 8.424-3.564l-3.816-2.916c-1.332 1.512-2.88 1.944-4.464 1.944-2.808 0-4.428-1.368-4.752-3.276h13.104c.036-.54.108-1.188.108-1.656zm-9.144-5.292c2.016 0 3.456 1.296 3.888 3.384h-7.956c.36-2.052 1.98-3.384 4.068-3.384zm17.468 14.364v-9.432c0-2.484 1.332-4.284 3.528-4.284 1.98 0 3.06 1.08 3.06 4.104v9.612h5.328V33.345c0-5.256-2.376-7.848-6.408-7.848-2.448 0-4.428 1.008-5.616 2.844v-2.448h-5.256v18.108h5.364zm22.716.396c2.448 0 4.248-.972 5.436-2.808v2.412h5.364V17.613h-5.364v10.692c-1.188-1.872-2.988-2.808-5.4-2.808-4.752 0-8.064 3.78-8.064 9.432s3.312 9.468 8.028 9.468zm1.512-4.86c-2.412 0-4.14-1.872-4.14-4.608s1.728-4.572 4.14-4.572 4.032 1.836 4.032 4.572c0 2.772-1.62 4.608-4.032 4.608zm19.099 4.464V28.485l5.904 12.384h3.852l5.904-12.384v15.516h5.616V18.585h-6.768l-6.66 14.724-6.732-14.724h-6.732v25.416h5.616zm43.306-9.072c0-5.832-3.708-9.432-9.072-9.432-5.508 0-9.576 3.78-9.576 9.432 0 5.544 3.816 9.468 10.044 9.468 3.528 0 6.84-1.188 8.424-3.564l-3.816-2.916c-1.332 1.512-2.88 1.944-4.464 1.944-2.808 0-4.428-1.368-4.752-3.276h13.104c.036-.54.108-1.188.108-1.656zm-9.144-5.292c2.016 0 3.456 1.296 3.888 3.384h-7.956c.36-2.052 1.98-3.384 4.068-3.384zm18.188 14.364v-8.928h4.176c5.652 0 8.496-3.06 8.496-8.424 0-4.968-2.448-8.064-8.244-8.064h-10.152v25.416h5.724zm0-20.34h3.312c2.7 0 3.564 1.044 3.564 3.204 0 2.304-1.152 3.204-3.636 3.204h-3.24v-6.408zm21.112 20.34v-8.316c0-2.628 1.332-4.644 4.032-4.644a12.25 12.25 0 0 1 1.908.144l.144-5.652c-.216-.036-.612-.036-.828-.036a5.8 5.8 0 0 0-5.364 3.312v-2.916h-5.256v18.108h5.364zm17.518.396c5.544 0 9.72-3.816 9.72-9.468s-4.176-9.432-9.72-9.432c-5.472 0-9.72 3.78-9.72 9.432s4.248 9.468 9.72 9.468zm0-4.86c-2.52 0-4.32-1.872-4.32-4.608s1.8-4.572 4.32-4.572c2.592 0 4.356 1.836 4.356 4.572s-1.764 4.608-4.356 4.608zm19.606 4.86c5.148 0 7.56-2.088 7.56-6.012 0-3.6-2.484-4.608-6.408-5.4-2.268-.432-3.42-.864-3.42-1.764 0-1.08 1.044-1.476 2.304-1.476 1.404 0 2.484.432 3.456 1.764l3.816-2.7c-1.152-1.872-3.708-3.312-7.56-3.312-4.104 0-7.2 1.836-7.2 5.796 0 3.708 3.024 4.968 6.264 5.58 2.736.54 3.348.936 3.348 1.908 0 1.044-.72 1.548-2.124 1.548-1.836 0-3.384-.864-4.464-2.376l-3.672 2.556c1.26 2.556 4.14 3.888 8.1 3.888zM31.245 37.658h2.15c7.32 0 13.254-5.967 13.254-13.329S40.715 11 33.395 11H17.298a1 1 0 0 0-.862 1.507l14.808 25.15zM.859 25.826a1 1 0 0 1 .867-1.498h14.133a1 1 0 0 1 .867.502L30.24 48.377a1 1 0 0 1-.867 1.498H15.24a1 1 0 0 1-.867-.502L.859 25.826z" fill="#585652"/></g></g><defs><clipPath id="B"><path fill="#fff" d="M0 0h269v61H0z"/></clipPath></defs></svg>