<svg xmlns="http://www.w3.org/2000/svg" width="1082" height="946" fill="none"><g clipPath="url(#B)"><mask id="A" maskUnits="userSpaceOnUse" x="0" y="0" width="1082" height="946"><path d="M0 0h1081.42v945.929H0V0z" fill="#fff"/></mask><g mask="url(#A)"><path d="M1051.44 61.218l-5.9 830.88c-.19 25.853-29.04 41.133-50.536 26.76L550.017 621.272l-49.733-33.241-129.413-86.573c-19.347-12.933-19.2-41.413.24-54.16l123-77.947 41.306 27.627-122.52 77.613 128.52 85.947 50.094 33.507 410.029 274.2 5.56-783.587-413.603 268.494-41.306-27.627L1001.12 33.832c21.71-14.213 50.51 1.44 50.32 27.387zm-333.01 389.96L514.723 314.925 94.296 33.765c-21.493-14.373-50.347.907-50.52 26.76l-5.92 830.88c-.173 25.946 28.613 41.613 50.32 27.386l450.22-294.38-41.306-27.613L82.203 867.965l5.56-783.587 413.733 276.693 174.16 116.96-121.63 78.379 41.666 27.88 122.498-78.965c19.44-12.747 19.586-41.227.24-54.147z" fill="#fff"/></g></g><defs><clipPath id="B"><path fill="#fff" d="M0 0h1081.42v945.929H0z"/></clipPath></defs></svg>