<svg xmlns="http://www.w3.org/2000/svg" width="66" height="49" fill="none"><g clipPath="url(#A)" fill="#fff"><path d="M3.513 10.659C6.032 6.101 9.871 3.221 14.639.932c1.492-.716 3.241-.111 3.905 1.352s-.006 3.23-1.498 3.946c-4.089 1.963-6.697 4.093-8.376 7.131-1.156 2.092-1.97 4.79-2.362 8.463h19.091c2.651 0 4.63 2.031 4.472 4.678l-.11 1.889c-.255 4.461.182 10.41.599 14.666.28 2.851-1.939 5.374-4.803 5.374H4.858C2.162 48.429.01 46.18.13 43.487l.373-8.417-.073-1.634-.06.082c-.129-1.734-.195-3.449-.24-5.139l-.001-.025v-.025l.001-1.595a4.79 4.79 0 0 1 .008-.509c.123-6.484 1.143-11.528 3.375-15.566zm34.64-.601C41.02 5.175 45.619 2.373 51.82 1.1c1.61-.331 3.138.694 3.411 2.289s-.811 3.156-2.421 3.487c-4.966 1.019-7.82 3.024-9.58 6.023-1.252 2.133-2.074 4.968-2.465 8.727l18.368-.566c2.519-.078 4.657 1.832 4.863 4.343l1.207 14.699a4.75 4.75 0 0 1-.066 1.265l-.629 3.335c-.424 2.245-2.39 3.867-4.674 3.855l-20.355-.102c-2.756-.014-4.917-2.37-4.693-5.117l.152-1.859-.431-14.934a4.74 4.74 0 0 1 .108-1.157c.178-6.137 1.166-11.288 3.538-15.329z"/></g><defs><clipPath id="A"><path fill="#fff" d="M0 0h66v49H0z"/></clipPath></defs></svg>