<svg xmlns="http://www.w3.org/2000/svg" width="18" height="19" fill="none"><g clipPath="url(#A)"><path d="M17.701 16.976l-3.229-3.206c2.521-3.229 2.256-7.828-.641-10.725C12.306 1.519 10.271.679 8.104.679s-4.201.84-5.727 2.366S.011 6.605.011 8.772s.84 4.202 2.366 5.727 3.56 2.366 5.727 2.366a8 8 0 0 0 4.975-1.725l3.206 3.251c.199.199.442.287.708.287s.509-.111.708-.287c.398-.376.398-1.017 0-1.415zm-3.494-8.204c0 1.636-.641 3.162-1.791 4.312s-2.698 1.791-4.312 1.791-3.162-.641-4.312-1.791-1.791-2.698-1.791-4.312c0-1.636.641-3.162 1.791-4.312S6.49 2.669 8.104 2.669c1.636 0 3.162.641 4.312 1.791s1.791 2.676 1.791 4.312z" fill="#212121"/></g><defs><clipPath id="A"><path fill="#fff" d="M0 0h18v19H0z"/></clipPath></defs></svg>