<svg width="102" height="43" viewBox="0 0 102 43" fill="none" xmlns="http://www.w3.org/2000/svg">
<g clip-path="url(#clip0_7727_27361)">
<path fillRule="evenodd" clipRule="evenodd" d="M101.388 24.5616H87.686C88.009 27.8812 90.406 28.9476 93.126 28.9476C95.914 28.9476 98.158 28.3112 100.011 27.3136V33.024C97.6595 34.393 94.9688 35.0497 92.259 34.916C85.442 34.916 80.648 30.616 80.648 22.0504C80.648 14.8436 84.711 9.116 91.358 9.116C98.022 9.116 101.49 14.7576 101.49 22.016C101.49 22.704 101.422 24.1832 101.388 24.5616ZM91.324 14.8952C89.573 14.8952 87.635 16.1508 87.635 19.3328H94.86C94.86 16.1508 93.041 14.8952 91.324 14.8952ZM69.615 34.916C67.167 34.916 65.671 33.884 64.685 33.1272L64.651 41.0908L57.647 42.5872V9.5804H64.039L64.175 11.3348C65.6576 9.912 67.6226 9.11797 69.666 9.116C74.596 9.116 79.22 13.588 79.22 21.844C79.22 30.8396 74.63 34.916 69.615 34.916ZM68 15.394C66.385 15.394 65.382 15.9788 64.651 16.7872L64.685 27.3136C65.365 28.0704 66.351 28.6552 68 28.6552C70.584 28.6552 72.318 25.8172 72.318 21.9988C72.318 18.3008 70.55 15.394 68 15.394ZM48.008 9.5804H55.029V34.4172H48.008V9.5804ZM48.008 1.4964L55.029 0V5.7792L48.008 7.2928V1.5136V1.4964ZM40.664 17.5784V34.4172H33.66V9.5804H39.95L40.154 11.6788C41.854 8.6344 45.373 9.2536 46.308 9.5804V16.0992C45.424 15.8068 42.415 15.3596 40.664 17.5784ZM26.129 25.6968C26.129 29.8764 30.549 28.5864 31.433 28.208V33.9872C30.498 34.5032 28.815 34.916 26.52 34.916C25.5635 34.9442 24.6113 34.7753 23.7213 34.4195C22.8314 34.0636 22.0223 33.5283 21.3433 32.8461C20.6642 32.1639 20.1295 31.3491 19.7715 30.4512C19.4135 29.5533 19.2398 28.5911 19.261 27.6232L19.278 4.9708L26.112 3.4916V9.5804H31.45V15.652H26.129V25.714V25.6968ZM17.782 26.9008C17.782 32.0092 13.855 34.916 8.041 34.916C5.43204 34.914 2.85132 34.3695 0.459 33.3164V26.5568C2.805 27.8468 5.729 28.81 8.041 28.81C9.605 28.81 10.642 28.3972 10.642 27.09C10.642 23.6844 0 24.9572 0 17.114C0 12.1088 3.876 9.116 9.554 9.116C11.866 9.116 14.178 9.46 16.507 10.406V17.0796C14.3547 15.9335 11.9686 15.3094 9.537 15.2564C8.075 15.2564 7.089 15.6864 7.089 16.8044C7.089 19.9864 17.782 18.4728 17.782 26.918V26.9008Z" fill="#585652"/>
</g>
<defs>
<clipPath id="clip0_7727_27361">
<rect width="102" height="43" fill="white"/>
</clipPath>
</defs>
</svg>
